<svg version="1.1" id="Layer_1" xmlns="http://www.w3.org/2000/svg" xmlns:xlink="http://www.w3.org/1999/xlink" x="0px" y="0px"
	 width="100%" viewBox="0 0 252 183" enable-background="new 0 0 252 183" xml:space="preserve">
<path fill="#000000" opacity="1.000000" stroke="none" 
	d="
M253.000000,114.000000 
	C253.000000,137.306931 253.000000,160.613861 253.000000,183.960388 
	C169.121475,183.960388 85.242935,183.960388 1.000000,183.960388 
	C1.000000,162.647156 1.000000,141.292236 1.335068,119.172714 
	C2.805881,120.998543 3.574061,123.842461 5.150826,126.128738 
	C8.895576,131.558517 13.037684,136.713409 16.992998,141.999008 
	C23.347702,150.490967 29.461807,159.175797 36.116692,167.424866 
	C39.421249,171.521042 42.963589,175.757523 48.585697,177.157120 
	C49.913876,177.487762 51.113533,178.334656 52.372307,178.944061 
	C52.968803,177.499847 53.565304,176.055634 54.161808,174.611404 
	C53.951946,174.530258 53.742088,174.449112 53.532230,174.367981 
	C53.148712,174.822723 52.765198,175.277481 52.161598,175.993195 
	C52.055256,174.228333 51.967571,172.773117 51.910080,171.818970 
	C51.160526,171.766617 50.149189,171.912323 50.034069,171.655823 
	C47.958641,167.031265 45.600510,162.478394 44.118393,157.659348 
	C42.813126,153.415314 42.403812,148.877243 41.791317,144.442429 
	C40.462307,134.819641 38.897011,125.207695 38.147461,115.535591 
	C37.756809,110.494644 38.694096,105.511238 31.028179,106.940590 
	C30.653910,107.010376 30.200222,106.417595 29.741528,106.306168 
	C20.248028,103.999901 10.855127,99.343132 1.000000,105.000000 
	C1.000000,70.401466 1.000000,35.802929 1.000000,1.000000 
	C40.353992,1.000000 79.708336,1.000000 119.818909,1.292120 
	C111.479706,10.965305 106.409706,22.464132 102.958900,34.847004 
	C101.509254,40.048958 99.693123,45.149788 98.280708,50.360859 
	C96.399681,57.300835 94.425056,64.241684 93.082924,71.294861 
	C91.393944,80.170822 90.833763,89.282471 88.815712,98.069458 
	C86.474777,108.262283 84.721863,118.416611 84.978951,128.893372 
	C85.101433,133.884857 84.732658,138.900299 85.076363,143.871033 
	C85.409760,148.692566 86.369316,153.470917 87.066444,158.266403 
	C87.080299,158.361679 87.248451,158.434525 87.499588,158.652100 
	C87.853333,158.217606 88.205078,157.785568 88.001717,158.035355 
	C89.991936,161.128128 91.886604,164.635132 94.308754,167.729172 
	C101.118027,176.427216 109.199196,182.879318 121.194000,182.041611 
	C125.004524,181.775482 128.974731,181.383820 132.651505,182.132263 
	C139.640213,183.554871 145.079544,179.846405 149.708527,176.354874 
	C160.865036,167.939758 166.706665,156.163544 166.974960,141.980347 
	C167.116592,134.493240 167.126862,126.998108 166.942764,119.512840 
	C166.859390,116.123833 166.225433,112.740021 165.722672,109.371544 
	C164.864334,103.620529 163.903687,97.884857 163.002701,92.140114 
	C162.227097,87.194862 161.548538,82.233063 160.686981,77.303062 
	C160.080887,73.834900 159.333237,70.384605 158.484344,66.967178 
	C156.714050,59.840416 154.891968,52.725338 152.984039,45.634274 
	C151.133301,38.755707 149.902267,31.575468 147.021088,25.145136 
	C143.819870,18.000525 139.048798,11.561063 134.989822,4.797411 
	C134.255722,3.574117 133.659744,2.267920 133.000000,1.000000 
	C172.922424,1.000000 212.844864,1.000000 253.000000,1.000000 
	C253.000000,36.020550 253.000000,71.041618 252.692963,106.820396 
	C249.982376,103.705078 246.546234,101.289597 241.960938,102.081131 
	C233.896484,103.473274 225.880264,105.208237 217.938431,107.180595 
	C216.702591,107.487526 215.275055,109.733246 215.109146,111.213860 
	C213.628082,124.430527 213.691284,137.777069 210.158005,150.815826 
	C207.963409,158.914444 207.547714,167.474258 201.107773,173.924377 
	C200.095917,174.937836 200.239975,177.105408 199.600418,179.782059 
	C201.619263,178.835785 202.791565,178.596481 203.517868,177.895264 
	C208.041626,173.527664 212.367538,168.952606 216.943527,164.642197 
	C225.677307,156.415329 232.782669,146.855042 239.555222,137.056213 
	C243.040573,132.013489 245.907410,126.540817 249.007523,121.235413 
	C250.396851,118.857788 251.672668,116.413849 253.000000,114.000000 
M49.237366,59.975243 
	C44.456524,67.479622 44.819042,76.269081 44.308861,84.457024 
	C43.681217,94.530075 45.564316,104.736496 45.940201,114.900879 
	C46.427444,128.076767 49.345024,140.556595 53.708183,153.030624 
	C57.015900,162.487213 61.585087,170.568024 68.816315,177.258392 
	C70.719498,179.019257 72.819061,181.518280 75.053246,181.783310 
	C80.581894,182.439133 86.240608,181.998550 93.133598,181.998550 
	C91.779755,180.394409 91.278786,179.594757 90.585533,179.031952 
	C89.734657,178.341217 88.568718,178.003983 87.804947,177.245956 
	C80.458801,169.955078 76.915215,160.614105 75.193001,150.821411 
	C73.890358,143.414459 74.108963,135.701263 74.080490,128.122757 
	C74.062080,123.222221 74.331558,118.216003 75.337982,113.439613 
	C77.039169,105.365967 79.426506,97.436897 81.504799,89.525238 
	C81.809616,89.795784 82.245255,90.182457 83.096252,90.937798 
	C83.096252,87.996490 83.096252,85.701851 83.096252,82.576904 
	C83.810844,84.096191 84.170723,84.861328 84.530602,85.626472 
	C84.932884,82.700294 85.640511,78.960823 84.101463,77.286522 
	C79.234924,71.992279 73.910446,66.931664 68.056534,62.775990 
	C59.149826,56.453156 55.894470,55.301662 49.237366,59.975243 
M206.002121,66.220398 
	C206.002121,64.393433 206.002121,62.566463 206.002121,61.207253 
	C198.543610,54.216042 191.168243,57.559055 184.953156,61.924988 
	C179.148590,66.002548 174.547775,71.822372 169.580902,77.031494 
	C168.871109,77.775902 168.643799,79.524590 168.947311,80.594543 
	C170.115677,84.713181 171.875168,88.676460 172.872955,92.827774 
	C173.919586,97.182411 174.293320,101.695221 175.054169,106.122910 
	C176.330627,113.551003 178.350967,120.922668 178.839005,128.397690 
	C179.527832,138.947739 179.398682,149.510803 175.122284,159.680405 
	C172.394974,166.166214 170.565247,172.943665 164.358337,177.262024 
	C162.950195,178.241730 161.968506,179.834396 160.790527,181.144913 
	C161.047012,181.523605 161.303497,181.902313 161.559982,182.281006 
	C168.391342,180.489334 175.895035,184.815720 182.383759,178.970261 
	C189.298553,172.741013 195.029175,165.757401 197.935654,156.876907 
	C200.394562,149.363922 202.660965,141.746246 204.325775,134.026779 
	C205.993454,126.294182 207.439484,118.410873 207.849869,110.534599 
	C208.438614,99.234947 208.140015,87.878937 207.909698,76.553299 
	C207.845459,73.395058 206.686676,70.259079 206.002121,66.220398 
z"/>
<path fill="#FFFFFF" opacity="1.000000" stroke="none" 
	d="
M132.536819,1.000000 
	C133.659744,2.267920 134.255722,3.574117 134.989822,4.797411 
	C139.048798,11.561063 143.819870,18.000525 147.021088,25.145136 
	C149.902267,31.575468 151.133301,38.755707 152.984039,45.634274 
	C154.891968,52.725338 156.714050,59.840416 158.484344,66.967178 
	C159.333237,70.384605 160.080887,73.834900 160.686981,77.303062 
	C161.548538,82.233063 162.227097,87.194862 163.002701,92.140114 
	C163.903687,97.884857 164.864334,103.620529 165.722672,109.371544 
	C166.225433,112.740021 166.859390,116.123833 166.942764,119.512840 
	C167.126862,126.998108 167.116592,134.493240 166.974960,141.980347 
	C166.706665,156.163544 160.865036,167.939758 149.708527,176.354874 
	C145.079544,179.846405 139.640213,183.554871 132.651505,182.132263 
	C128.974731,181.383820 125.004524,181.775482 121.194000,182.041611 
	C109.199196,182.879318 101.118027,176.427216 94.308754,167.729172 
	C91.886604,164.635132 89.991936,161.128128 88.001717,158.035355 
	C88.205078,157.785568 87.853333,158.217606 87.499588,158.652100 
	C87.248451,158.434525 87.080299,158.361679 87.066444,158.266403 
	C86.369316,153.470917 85.409760,148.692566 85.076363,143.871033 
	C84.732658,138.900299 85.101433,133.884857 84.978951,128.893372 
	C84.721863,118.416611 86.474777,108.262283 88.815712,98.069458 
	C90.833763,89.282471 91.393944,80.170822 93.082924,71.294861 
	C94.425056,64.241684 96.399681,57.300835 98.280708,50.360859 
	C99.693123,45.149788 101.509254,40.048958 102.958900,34.847004 
	C106.409706,22.464132 111.479706,10.965305 120.287567,1.292120 
	C124.024544,1.000000 128.049088,1.000000 132.536819,1.000000 
z"/>
<path fill="#FFFFFF" opacity="1.000000" stroke="none" 
	d="
M1.000000,105.464645 
	C10.855127,99.343132 20.248028,103.999901 29.741528,106.306168 
	C30.200222,106.417595 30.653910,107.010376 31.028179,106.940590 
	C38.694096,105.511238 37.756809,110.494644 38.147461,115.535591 
	C38.897011,125.207695 40.462307,134.819641 41.791317,144.442429 
	C42.403812,148.877243 42.813126,153.415314 44.118393,157.659348 
	C45.600510,162.478394 47.958641,167.031265 50.034069,171.655823 
	C50.149189,171.912323 51.160526,171.766617 51.910080,171.818970 
	C51.967571,172.773117 52.055256,174.228333 52.161598,175.993195 
	C52.765198,175.277481 53.148712,174.822723 53.532230,174.367981 
	C53.742088,174.449112 53.951946,174.530258 54.161808,174.611404 
	C53.565304,176.055634 52.968803,177.499847 52.372307,178.944061 
	C51.113533,178.334656 49.913876,177.487762 48.585697,177.157120 
	C42.963589,175.757523 39.421249,171.521042 36.116692,167.424866 
	C29.461807,159.175797 23.347702,150.490967 16.992998,141.999008 
	C13.037684,136.713409 8.895576,131.558517 5.150826,126.128738 
	C3.574061,123.842461 2.805881,120.998543 1.335068,118.704056 
	C1.000000,114.643097 1.000000,110.286201 1.000000,105.464645 
z"/>
<path fill="#FFFFFF" opacity="1.000000" stroke="none" 
	d="
M253.000000,113.562500 
	C251.672668,116.413849 250.396851,118.857788 249.007523,121.235413 
	C245.907410,126.540817 243.040573,132.013489 239.555222,137.056213 
	C232.782669,146.855042 225.677307,156.415329 216.943527,164.642197 
	C212.367538,168.952606 208.041626,173.527664 203.517868,177.895264 
	C202.791565,178.596481 201.619263,178.835785 199.600418,179.782059 
	C200.239975,177.105408 200.095917,174.937836 201.107773,173.924377 
	C207.547714,167.474258 207.963409,158.914444 210.158005,150.815826 
	C213.691284,137.777069 213.628082,124.430527 215.109146,111.213860 
	C215.275055,109.733246 216.702591,107.487526 217.938431,107.180595 
	C225.880264,105.208237 233.896484,103.473274 241.960938,102.081131 
	C246.546234,101.289597 249.982376,103.705078 252.692963,107.289055 
	C253.000000,109.041664 253.000000,111.083336 253.000000,113.562500 
z"/>
<path fill="#FFFFFF" opacity="1.000000" stroke="none" 
	d="
M49.590389,59.771809 
	C55.894470,55.301662 59.149826,56.453156 68.056534,62.775990 
	C73.910446,66.931664 79.234924,71.992279 84.101463,77.286522 
	C85.640511,78.960823 84.932884,82.700294 84.530602,85.626472 
	C84.170723,84.861328 83.810844,84.096191 83.096252,82.576904 
	C83.096252,85.701851 83.096252,87.996490 83.096252,90.937798 
	C82.245255,90.182457 81.809616,89.795784 81.504799,89.525238 
	C79.426506,97.436897 77.039169,105.365967 75.337982,113.439613 
	C74.331558,118.216003 74.062080,123.222221 74.080490,128.122757 
	C74.108963,135.701263 73.890358,143.414459 75.193001,150.821411 
	C76.915215,160.614105 80.458801,169.955078 87.804947,177.245956 
	C88.568718,178.003983 89.734657,178.341217 90.585533,179.031952 
	C91.278786,179.594757 91.779755,180.394409 93.133598,181.998550 
	C86.240608,181.998550 80.581894,182.439133 75.053246,181.783310 
	C72.819061,181.518280 70.719498,179.019257 68.816315,177.258392 
	C61.585087,170.568024 57.015900,162.487213 53.708183,153.030624 
	C49.345024,140.556595 46.427444,128.076767 45.940201,114.900879 
	C45.564316,104.736496 43.681217,94.530075 44.308861,84.457024 
	C44.819042,76.269081 44.456524,67.479622 49.590389,59.771809 
z"/>
<path fill="#FFFFFF" opacity="1.000000" stroke="none" 
	d="
M206.016052,66.666641 
	C206.686676,70.259079 207.845459,73.395058 207.909698,76.553299 
	C208.140015,87.878937 208.438614,99.234947 207.849869,110.534599 
	C207.439484,118.410873 205.993454,126.294182 204.325775,134.026779 
	C202.660965,141.746246 200.394562,149.363922 197.935654,156.876907 
	C195.029175,165.757401 189.298553,172.741013 182.383759,178.970261 
	C175.895035,184.815720 168.391342,180.489334 161.559982,182.281006 
	C161.303497,181.902313 161.047012,181.523605 160.790527,181.144913 
	C161.968506,179.834396 162.950195,178.241730 164.358337,177.262024 
	C170.565247,172.943665 172.394974,166.166214 175.122284,159.680405 
	C179.398682,149.510803 179.527832,138.947739 178.839005,128.397690 
	C178.350967,120.922668 176.330627,113.551003 175.054169,106.122910 
	C174.293320,101.695221 173.919586,97.182411 172.872955,92.827774 
	C171.875168,88.676460 170.115677,84.713181 168.947311,80.594543 
	C168.643799,79.524590 168.871109,77.775902 169.580902,77.031494 
	C174.547775,71.822372 179.148590,66.002548 184.953156,61.924988 
	C191.168243,57.559055 198.543610,54.216042 206.002121,61.207253 
	C206.002121,62.566463 206.002121,64.393433 206.016052,66.666641 
z"/>
</svg>